# xmcd
# 
# Track frame offsets:
#     150
#     26686
#     84651
#     118363
#     143387
#     167024
#     189928
#     223341
#     277169
#     309181
# 
# Disc length: 4491
# 
# Revision: 2
# Processed by: cddbd v1.5.2PL0 Copyright (c) Steve Scherf et al.
# Submitted via: fre:ac v1.0.31
# 
DISCID=8d11890a
DTITLE=Kitaro - Impressions Of The West Lake
DYEAR=2009
DGENRE=New Age
TTITLE0=The Inmost Feeling Ripples
TTITLE1=Aria Di West Lake
TTITLE2=Fish Dive In The Lake
TTITLE3=The Moon On The Lake
TTITLE4=Impressions Of The West Lake
TTITLE5=Zen
TTITLE6=Lotus
TTITLE7=Reflection Of The Moon
TTITLE8=Romance
TTITLE9=Spirit Of The West Lake
EXTD=YEAR: 2009
EXTT0=
EXTT1=
EXTT2=
EXTT3=
EXTT4=
EXTT5=
EXTT6=
EXTT7=
EXTT8=
EXTT9=
PLAYORDER=
